<?xml version="1.0" encoding="UTF-8" standalone="no"?>
<svg width="180px" height="180px" viewBox="0 0 180 180" version="1.1" xmlns="http://www.w3.org/2000/svg" xmlns:xlink="http://www.w3.org/1999/xlink" xmlns:sketch="http://www.bohemiancoding.com/sketch/ns">
    <!-- Generator: Sketch 3.3.3 (12072) - http://www.bohemiancoding.com/sketch -->
    <title>Code2@2x</title>
    <desc>Created with Sketch.</desc>
    <defs></defs>
    <g id="votosocial" stroke="none" stroke-width="1" fill="none" fill-rule="evenodd" sketch:type="MSPage">
        <g id="Code2" sketch:type="MSArtboardGroup">
            <circle id="Oval-1" fill="#4C6085" sketch:type="MSShapeGroup" cx="90" cy="90" r="86"></circle>
            <g id="&lt;-+-/-+-&gt;" sketch:type="MSLayerGroup" transform="translate(45.000000, 68.000000)" stroke="#4C6085" fill="#FFFFFF">
                <path d="M24.4599303,40.7163133 C26.0736063,39.1998529 26.0736063,36.6458144 24.4599303,35.1293541 L10.1916376,22.279348 L24.2900697,8.87064591 C25.9037456,7.35418556 25.9037456,4.80014708 24.2900697,3.28368673 C22.5914634,1.76722638 19.9586237,1.76722638 18.3449477,3.28368673 C12.0601045,9.11008702 1.44381533,19.326241 1.2739547,19.4858684 C0.424651568,20.2840054 0,21.3215835 0,22.279348 C0,23.3169261 0.424651568,24.3545042 1.2739547,25.1526413 C1.44381533,25.3122687 12.2299652,34.889913 18.5148084,40.7163133 C20.1284843,42.2327736 22.761324,42.2327736 24.4599303,40.7163133 L24.4599303,40.7163133 Z" id="&lt;" stroke-width="3" sketch:type="MSShapeGroup"></path>
                <path d="M32.61211,43.5321919 C34.0790801,44.4127029 35.7373942,44.035341 36.9492391,42.5258936 L60.2294178,4.78970849 C61.1861375,3.28026109 60.675887,1.33055819 59.1451355,0.450047208 C57.6781653,-0.430463778 55.7009447,0.00979171522 54.8080063,1.51923912 L31.5278277,39.2554242 C30.6348893,40.701978 31.0813585,42.6516809 32.61211,43.5321919 L32.61211,43.5321919 Z" id="/" stroke-width="1.17247752" sketch:type="MSShapeGroup"></path>
                <path d="M72.9989365,40.7163133 C78.7699397,34.889913 88.674229,25.3122687 88.8302021,25.1526413 C89.6100674,24.3545042 90,23.3169261 90,22.279348 C90,21.3215835 89.6100674,20.2840054 88.8302021,19.4858684 C88.674229,19.326241 78.9259128,9.11008702 73.1549096,3.28368673 C71.6731655,1.76722638 69.2555831,1.76722638 67.6958525,3.28368673 C66.2141085,4.80014708 66.2141085,7.35418556 67.6958525,8.87064591 L80.6416164,22.279348 L67.5398795,35.1293541 C66.0581354,36.6458144 66.0581354,39.1998529 67.5398795,40.7163133 C69.0996101,42.2327736 71.5171925,42.2327736 72.9989365,40.7163133 Z" id="&gt;" stroke-width="3" sketch:type="MSShapeGroup"></path>
            </g>
        </g>
    </g>
</svg>