<?xml version="1.0" encoding="UTF-8" standalone="no"?>
<svg width="180px" height="180px" viewBox="0 0 180 180" version="1.1" xmlns="http://www.w3.org/2000/svg" xmlns:xlink="http://www.w3.org/1999/xlink" xmlns:sketch="http://www.bohemiancoding.com/sketch/ns">
    <!-- Generator: Sketch 3.3.3 (12072) - http://www.bohemiancoding.com/sketch -->
    <title>Lock</title>
    <desc>Created with Sketch.</desc>
    <defs></defs>
    <g id="votosocial" stroke="none" stroke-width="1" fill="none" fill-rule="evenodd" sketch:type="MSPage">
        <g id="Lock" sketch:type="MSArtboardGroup" stroke="#4C6085">
            <circle id="Oval-1" stroke-width="4" sketch:type="MSShapeGroup" cx="90" cy="90" r="86"></circle>
            <g id="lock2" sketch:type="MSLayerGroup" transform="translate(55.000000, 46.500000)" fill="#4C6085">
                <path d="M14.9855107,22.4808 C15.835565,22.4808 16.5282019,21.7848 16.5282019,20.9235 C16.5282019,11.1012 24.3990757,3.1204 34.0759573,3.1204 C43.7700117,3.1204 51.652334,11.1012 51.652334,20.9235 C51.652334,21.7848 52.3449709,22.4808 53.1950252,22.4808 C54.0450796,22.4808 54.7319922,21.7848 54.7319922,20.9235 C54.7319922,9.3844 45.4701204,0 34.0759573,0 C22.7046913,0 13.4485437,9.3844 13.4485437,20.9235 C13.4485437,21.7819 14.1354563,22.4808 14.9855107,22.4808 L14.9855107,22.4808 Z M34.0816816,84.1551 C17.3067029,84.1551 3.66003883,70.3221 3.66003883,53.3194 C3.66003883,43.2216 8.58005049,33.7386 16.8258641,27.9618 C27.0608621,20.7901 41.1196738,20.7843 51.3546718,27.9676 L51.3661204,27.9676 C59.6004854,33.7502 64.5204971,43.2274 64.5204971,53.3194 C64.5204971,70.325 50.8623845,84.1551 34.0816816,84.1551 L34.0816816,84.1551 Z M53.1148854,25.4069 L53.1034369,25.4069 C41.8323456,17.4986 26.3310175,17.4928 15.0685126,25.3895 C15.0627883,25.3953 15.0627883,25.3953 15.0627883,25.4011 C5.98981748,31.7608 0.577518447,42.2008 0.577518447,53.3194 C0.577518447,72.0389 15.6094563,87.2755 34.0788194,87.2755 C52.5596311,87.2755 67.5972932,72.0389 67.5972932,53.3194 C67.6001553,42.2008 62.182132,31.7695 53.1148854,25.4069 L53.1148854,25.4069 Z M37.3531029,50.9588 C36.8779883,51.2372 36.5803262,51.7505 36.5803262,52.3073 L36.5803262,65.4762 C36.5860505,66.1432 36.3284583,66.7725 35.8647922,67.2423 C35.3896777,67.7295 34.7571456,67.9963 34.0759573,67.9963 C32.7107184,67.9963 31.6002097,66.8624 31.6002097,65.4704 L31.6002097,52.3073 C31.6002097,51.7534 31.3025476,51.2372 30.827433,50.9588 C28.7810058,49.7524 27.5560117,47.6238 27.5560117,45.2603 C27.5560117,43.4594 28.2887184,41.7658 29.6138874,40.4898 C30.8560544,39.295 32.4474019,38.6367 34.0959922,38.6367 C35.7388583,38.6367 37.3216194,39.295 38.5637864,40.4898 C39.8889553,41.7629 40.6216621,43.4565 40.6216621,45.2603 C40.6216621,47.6238 39.3938058,49.7524 37.3531029,50.9588 L37.3531029,50.9588 Z M27.4959068,38.2249 C25.5496544,40.0983 24.4763534,42.5981 24.4763534,45.2603 C24.4763534,48.3865 26.0018718,51.3387 28.5176893,53.157 L28.5176893,65.4704 C28.5176893,68.585 31.016334,71.1167 34.0730951,71.1167 C35.5757165,71.1167 36.9867495,70.5222 38.0428777,69.4463 C39.0932816,68.382 39.6628466,66.9668 39.6571223,65.4704 L39.6571223,53.157 C42.1729398,51.3387 43.6984583,48.3865 43.6984583,45.2603 C43.6984583,42.5981 42.6251573,40.1012 40.6846291,38.2307 C37.0668893,34.7304 31.1193709,34.7362 27.4959068,38.2249 L27.4959068,38.2249 Z" id="Lock-round-2" sketch:type="MSShapeGroup"></path>
            </g>
        </g>
    </g>
</svg>